<?xml version="1.0" encoding="UTF-8" standalone="no"?>
<svg width="180" height="50" viewBox="0 0 180 50" fill="none" xmlns="http://www.w3.org/2000/svg">
  <!-- A in Averox -->
  <path d="M23.4 38h-5.8L15.8 32H5.2L3.4 38H0L10 12h1l12.4 26zM10.5 16.2L6.1 29h8.8l-4.4-12.8z" fill="#0056B3"/>
  <!-- V in Averox -->
  <path d="M36 12l8 26h-3.5l-2-7h-9l-2 7H24l8-26h4zm1.7 16l-3.7-12.5L30.3 28h7.4z" fill="#0056B3"/>
  <!-- E in Averox -->
  <path d="M48 12h14v3H51v9h10v3H51v8h11v3H48V12z" fill="#0056B3"/>
  <!-- R in Averox -->
  <path d="M66 12h8c5 0 8 3 8 7.5 0 3.8-2.2 6.2-5.5 7L83 38h-3.5l-6-11H69v11H66V12zm7.7 12c3 0 5-1.6 5-4.5 0-2.8-2-4.5-5-4.5H69v9h4.7z" fill="#0056B3"/>
  <!-- O in Averox -->
  <path d="M87 25c0-8 6-13.5 13.5-13.5S114 17 114 25s-6 13.5-13.5 13.5S87 33 87 25zm24 0c0-6-4.5-10.5-10.5-10.5S90 19 90 25s4.5 10.5 10.5 10.5S111 31 111 25z" fill="#0056B3"/>
  <!-- X in Averox -->
  <path d="M129 12l-8 11.5 9 14.5h-4l-7-11.5-7 11.5h-4l9-14.5-8-11.5h4l6 9 6-9h4z" fill="#0056B3"/>
  
  <!-- Stylized mark/accent for the Averox brand -->
  <path d="M165 20c0 8.3-6.7 15-15 15-4.2 0-8-1.7-10.7-4.3" stroke="#0056B3" stroke-width="3" stroke-linecap="round"/>
  <circle cx="165" cy="20" r="5" fill="#0056B3"/>
</svg>